# xmcd
#
# Track frame offsets:
#	150
#	13300
#	24912
#	37217
#	49990
#	63732
#	75637
#	86115
#	95385
#	106352
#	115902
#	126510
#	136355
#	146002
#	156402
#	166015
#	176902
#	186685
#	198632
#	209817
#	221000
#
# Disc length: 3120 seconds
#
# Revision: 0
# Processed by: cddbd v1.5.1PL0 Copyright (c) Steve Scherf et al.
# Submitted via: dBpowerAMP V4.0
#
DISCID=500c2e15
DTITLE=crystal clark - hello again
DYEAR=1997
DGENRE=Country
TTITLE0=Hello again
TTITLE1=i can't stop loving you
TTITLE2=Close up the honky tonk
TTITLE3=Imagine that
TTITLE4=Cold,cold heart
TTITLE5=Let the tearsdrops fall
TTITLE6=The house of blue lights
TTITLE7=I'm moving along
TTITLE8=Crazy arms
TTITLE9=Heartaches by the number
TTITLE10=Gotta lot of rhythm in my soul
TTITLE11=Hard times ahead
TTITLE12=I'm blue again
TTITLE13=Ain't that a shame
TTITLE14=Billy boy ,my billy boy
TTITLE15=San antonio rose
TTITLE16=Have you ever been lonely
TTITLE17=Your cheatin' heart 
TTITLE18=Take these chains from my heart
TTITLE19=There he goes
TTITLE20=I'm a fool to care
EXTD=
EXTT0=
EXTT1=
EXTT2=
EXTT3=
EXTT4=
EXTT5=
EXTT6=
EXTT7=
EXTT8=
EXTT9=
EXTT10=
EXTT11=
EXTT12=
EXTT13=
EXTT14=
EXTT15=
EXTT16=
EXTT17=
EXTT18=
EXTT19=
EXTT20=
PLAYORDER=
